HIERARCHY
ROOT Hips
{
    OFFSET 0.000000 0.000000 0.000000
    CHANNELS 6 Xposition Yposition Zposition Zrotation Xrotation Yrotation
    JOINT Spine
    {
        OFFSET -0.000000 14.517291 0.000000
        CHANNELS 3 Zrotation Xrotation Yrotation
        JOINT Spine1
        {
            OFFSET -0.000000 37.558300 0.000000
            CHANNELS 3 Zrotation Xrotation Yrotation
            JOINT Neck
            {
                OFFSET -0.000000 37.404057 3.400369
                CHANNELS 3 Zrotation Xrotation Yrotation
                JOINT Head
                {
                    OFFSET -0.000000 24.785618 -3.540803
                    CHANNELS 3 Zrotation Xrotation Yrotation
                    End Site
                    {
                        OFFSET -0.000000 35.408028 0.000000
                    }
                }
            }
            JOINT LeftShoulder
            {
                OFFSET 6.992933 33.973492 -0.192664
                CHANNELS 3 Zrotation Xrotation Yrotation
                JOINT LeftArm
                {
                    OFFSET 21.527611 0.000000 0.000000
                    CHANNELS 3 Zrotation Xrotation Yrotation
                    JOINT LeftForeArm
                    {
                        OFFSET 56.353916 0.000000 0.000000
                        CHANNELS 3 Zrotation Xrotation Yrotation
                        JOINT LeftHand
                        {
                            OFFSET 47.774071 0.000000 0.000000
                            CHANNELS 3 Zrotation Xrotation Yrotation
                            End Site
                            {
                                OFFSET 26.556021 0.000000 0.000000
                            }
                        }
                    }
                }
            }
            JOINT RightShoulder
            {
                OFFSET -7.065357 33.973492 -0.192664
                CHANNELS 3 Zrotation Xrotation Yrotation
                JOINT RightArm
                {
                    OFFSET -21.527611 0.000000 0.000000
                    CHANNELS 3 Zrotation Xrotation Yrotation
                    JOINT RightForeArm
                    {
                        OFFSET -56.353916 0.000000 0.000000
                        CHANNELS 3 Zrotation Xrotation Yrotation
                        JOINT RightHand
                        {
                            OFFSET -47.774071 0.000000 0.000000
                            CHANNELS 3 Zrotation Xrotation Yrotation
                            End Site
                            {
                                OFFSET -26.556021 0.000000 0.000000
                            }
                        }
                    }
                }
            }
        }
    }
    JOINT LeftUpLeg
    {
        OFFSET 17.704014 0.000000 0.000000
        CHANNELS 3 Zrotation Xrotation Yrotation
        JOINT LeftLeg
        {
            OFFSET -0.000000 -81.181816 0.000000
            CHANNELS 3 Zrotation Xrotation Yrotation
            JOINT LeftFoot
            {
                OFFSET -0.000000 -62.821102 0.000000
                CHANNELS 3 Zrotation Xrotation Yrotation
                JOINT LeftToeBase
                {
                    OFFSET -0.000000 -11.507608 26.556021
                    CHANNELS 3 Zrotation Xrotation Yrotation
                    End Site
                    {
                        OFFSET -0.000000 0.000000 7.081605
                    }
                }
            }
        }
    }
    JOINT RightUpLeg
    {
        OFFSET -17.704014 0.000000 0.000000
        CHANNELS 3 Zrotation Xrotation Yrotation
        JOINT RightLeg
        {
            OFFSET -0.000000 -81.181816 0.000000
            CHANNELS 3 Zrotation Xrotation Yrotation
            JOINT RightFoot
            {
                OFFSET -0.000000 -62.821102 0.000000
                CHANNELS 3 Zrotation Xrotation Yrotation
                JOINT RightToeBase
                {
                    OFFSET -0.000000 -11.507608 26.556021
                    CHANNELS 3 Zrotation Xrotation Yrotation
                    End Site
                    {
                        OFFSET -0.000000 0.000000 7.081605
                    }
                }
            }
        }
    }
}
MOTION
Frames:    11
Frame Time:    0.008333
0.319422    158.142441    -27.992863    -0.423541    -1.882187    -24.160587    1.879212    -2.142101    5.437254    4.812514    7.091424    1.503096    3.347103    2.413216    6.788831    -1.119009    -5.425940    6.427484    5.248370    7.591462    -4.516955    -42.846630    26.383060    35.489548    -36.351124    37.358334    -98.872597    10.361280    -8.102448    -23.256128    -6.721791    7.852678    -4.457644    41.214527    8.791964    66.939728    3.906745    -0.849429    108.641335    -0.379053    -6.328660    13.537531    13.606393    -18.521030    -4.913456    -11.839509    15.101190    6.473542    -6.273994    4.950145    23.132172    0.000000    0.000000    0.000000    -8.267123    10.480005    -3.482918    6.449013    14.567346    -0.423737    2.103933    -20.136007    -24.318678    0.000000    0.000000    0.000000    
0.298943    158.141342    -27.999895    -0.422246    -1.885176    -24.145924    1.889535    -2.132488    5.435155    4.800588    7.072201    1.503934    3.331965    2.415363    6.789354    -1.114309    -5.404132    6.431122    5.241034    7.561188    -4.557797    -42.791031    26.410603    35.492973    -36.412411    37.383301    -98.796661    10.388758    -8.101866    -23.271612    -6.728635    7.863283    -4.453851    41.197891    8.782201    66.947906    3.905943    -0.850177    108.633240    -0.368962    -6.326212    13.533554    13.601950    -18.510717    -4.909896    -11.818693    15.078556    6.456011    -6.295953    4.960031    23.138849    0.000000    0.000000    0.000000    -8.258320    10.483235    -3.498520    6.450746    14.574040    -0.437936    2.127869    -20.154394    -24.323961    0.000000    0.000000    0.000000    
0.278028    158.137817    -28.010523    -0.420211    -1.879817    -24.125521    1.893734    -2.128645    5.429638    4.820523    7.013737    1.503317    3.281373    2.512480    6.775633    -1.107706    -5.441711    6.427007    5.201220    7.565504    -4.641766    -42.734875    26.428780    35.525383    -36.436989    37.374329    -98.743317    10.364784    -8.100049    -23.308395    -6.767240    7.909626    -4.413548    41.183918    8.768045    66.937248    3.890756    -0.872037    108.611732    -0.380624    -6.326243    13.536170    13.600055    -18.511473    -4.915704    -11.802525    15.052934    6.459764    -6.306364    4.976253    23.127462    0.000000    0.000000    0.000000    -8.243991    10.480332    -3.523853    6.448769    14.578577    -0.435999    2.100363    -20.156670    -24.321400    0.000000    0.000000    0.000000    
0.257632    158.135620    -28.017830    -0.417903    -1.881346    -24.105463    1.914699    -2.122510    5.416928    4.786717    6.994810    1.501835    3.284024    2.518412    6.780796    -1.117729    -5.417920    6.430559    5.202375    7.524857    -4.678600    -42.706928    26.474106    35.559029    -36.387959    37.336006    -98.741135    10.342628    -8.073515    -23.369837    -6.769451    7.918508    -4.390814    41.198048    8.742799    66.934738    3.898688    -0.836167    108.606422    -0.412300    -6.304939    13.516108    13.590731    -18.508528    -4.902150    -11.772378    15.045622    6.447166    -6.315806    4.992557    23.083281    0.000000    0.000000    0.000000    -8.232512    10.489413    -3.550397    6.440170    14.572939    -0.462411    2.102579    -20.160255    -24.291651    0.000000    0.000000    0.000000    
0.237886    158.134079    -28.028017    -0.410423    -1.873875    -24.081659    1.922154    -2.128088    5.409108    4.779922    6.981268    1.500168    3.265694    2.496742    6.781808    -1.112342    -5.369950    6.434777    5.191570    7.488670    -4.726208    -42.673458    26.503729    35.585163    -36.330147    37.281445    -98.746964    10.305948    -8.054604    -23.391396    -6.776338    7.922133    -4.388925    41.170219    8.747127    66.938004    3.879603    -0.868530    108.605553    -0.427269    -6.312275    13.501518    13.586338    -18.516031    -4.909806    -11.763676    15.025738    6.447778    -6.337726    4.995790    23.081333    0.000000    0.000000    0.000000    -8.220524    10.488897    -3.574874    6.429089    14.565185    -0.475343    2.096525    -20.158348    -24.262802    0.000000    0.000000    0.000000    
0.218368    158.133789    -28.034342    -0.400872    -1.870255    -24.060192    1.929190    -2.137257    5.399097    4.768045    6.972078    1.497815    3.254978    2.506549    6.789230    -1.117357    -5.356132    6.443328    5.181874    7.462823    -4.765165    -42.603634    26.499111    35.580704    -36.304375    37.246983    -98.708176    10.286860    -8.022878    -23.420441    -6.780524    7.925030    -4.371877    41.171589    8.726075    66.930580    3.900164    -0.845640    108.605736    -0.456457    -6.321503    13.509479    13.580038    -18.514887    -4.912919    -11.760570    14.996697    6.448519    -6.324711    5.022757    23.068640    0.000000    0.000000    0.000000    -8.211414    10.491608    -3.584928    6.422993    14.554760    -0.483119    2.105161    -20.165190    -24.276894    0.000000    0.000000    0.000000    
0.193882    158.132935    -28.037146    -0.401460    -1.873363    -24.038874    1.934148    -2.137552    5.392205    4.768161    6.970942    1.495542    3.261719    2.498294    6.797180    -1.145772    -5.334626    6.445400    5.174901    7.438883    -4.789583    -42.574100    26.516052    35.569023    -36.259197    37.159134    -98.697906    10.274621    -8.054553    -23.438757    -6.791549    7.909344    -4.367244    41.183006    8.726423    66.914696    3.902693    -0.830599    108.612709    -0.475961    -6.313064    13.490882    13.579717    -18.506067    -4.895715    -11.742385    14.985018    6.403766    -6.335185    5.029637    23.063580    0.000000    0.000000    0.000000    -8.189757    10.508473    -3.625181    6.396551    14.545599    -0.436667    2.096886    -20.163734    -24.293804    0.000000    0.000000    0.000000    
0.169284    158.131058    -28.045303    -0.397650    -1.868747    -24.017784    1.934921    -2.138570    5.387888    4.769782    6.954070    1.494689    3.252172    2.480026    6.807648    -1.143694    -5.289806    6.457811    5.168787    7.433174    -4.810921    -42.551281    26.528845    35.546246    -36.206642    37.053322    -98.709541    10.322646    -8.127039    -23.432364    -6.799606    7.910925    -4.360939    41.196793    8.715712    66.906494    3.918705    -0.808824    108.615570    -0.473716    -6.313809    13.496813    13.581364    -18.507034    -4.880147    -11.732571    14.968981    6.387326    -6.341617    5.038273    23.053125    0.000000    0.000000    0.000000    -8.175263    10.519512    -3.630529    6.402861    14.522444    -0.444906    2.066583    -20.168228    -24.313635    0.000000    0.000000    0.000000    
0.143969    158.133270    -28.047783    -0.390346    -1.869225    -23.998718    1.933633    -2.148040    5.379059    4.762777    6.953255    1.492178    3.260514    2.484619    6.815663    -1.159132    -5.281295    6.462418    5.174724    7.421431    -4.830741    -42.533600    26.514360    35.532219    -36.200306    36.972900    -98.687141    10.360651    -8.208275    -23.467413    -6.798461    7.908129    -4.351146    41.192692    8.714268    66.898300    3.926247    -0.809214    108.619370    -0.477939    -6.325654    13.501401    13.576467    -18.500183    -4.865007    -11.715588    14.948051    6.356615    -6.351320    5.056627    23.051207    0.000000    0.000000    0.000000    -8.160296    10.545273    -3.646366    6.387542    14.478211    -0.444027    2.047579    -20.154543    -24.317942    0.000000    0.000000    0.000000    
0.115015    158.135864    -28.050276    -0.386316    -1.866855    -23.977858    1.926143    -2.156495    5.368655    4.771584    6.947649    1.488439    3.277741    2.461120    6.834070    -1.191664    -5.233627    6.473135    5.172659    7.415947    -4.835024    -42.544739    26.508097    35.518784    -36.160782    36.857113    -98.708649    10.397425    -8.316653    -23.437183    -6.798170    7.913604    -4.354111    41.193298    8.705381    66.899307    3.927925    -0.793100    108.620354    -0.470931    -6.311255    13.503276    13.577534    -18.489061    -4.843625    -11.703830    14.917000    6.327937    -6.359035    5.075366    23.047981    0.000000    0.000000    0.000000    -8.143169    10.570921    -3.689630    6.377930    14.436079    -0.431475    2.048050    -20.152880    -24.331705    0.000000    0.000000    0.000000    
0.088155    158.140625    -28.054220    -0.379176    -1.861233    -23.964115    1.920238    -2.170858    5.360076    4.779385    6.946016    1.485093    3.258766    2.457098    6.842302    -1.175621    -5.214444    6.487181    5.164787    7.410043    -4.839580    -42.541840    26.482525    35.505535    -36.174191    36.769859    -98.706474    10.474600    -8.450528    -23.351257    -6.816290    7.906281    -4.341868    41.212368    8.709379    66.886719    3.932921    -0.779240    108.626282    -0.469475    -6.304959    13.498791    13.579048    -18.479065    -4.828466    -11.690928    14.878648    6.322507    -6.379399    5.094472    23.035084    0.000000    0.000000    0.000000    -8.129915    10.594241    -3.689553    6.368075    14.377594    -0.461282    2.062647    -20.139965    -24.303673    0.000000    0.000000    0.000000    
